<?xml version="1.0" encoding="UTF-8"?>
<svg xmlns="http://www.w3.org/2000/svg" xmlns:xlink="http://www.w3.org/1999/xlink" width="503" height="565" viewBox="884.140472855287 167.02461047211096 251.65507718069648 282.50313032726683">
<defs><pattern id="fh-grid" width="5.760416666666667" height="5.760416666666667" patternUnits="userSpaceOnUse" x="5.437499999999998" y="2.0729166666666554"><circle cx="1" cy="1" r="0.5" fill="rgba(255,255,255,0.04)"></circle></pattern><linearGradient id="fh-fill-grad-fh_1777458632245_35" gradientUnits="objectBoundingBox" x1="0.019054199059163453" y1="0.05648236460200808" x2="1" y2="1"><stop offset="0%" stop-color="#63d4fd" stop-opacity="1"></stop><stop offset="100%" stop-color="#0b20bc" stop-opacity="1"></stop></linearGradient><linearGradient id="fh-fill-grad-fh_1777458785297_42" gradientUnits="objectBoundingBox" x1="0" y1="0.5" x2="1" y2="1"><stop offset="0%" stop-color="#2f46d3" stop-opacity="1"></stop><stop offset="100%" stop-color="#4de7ef" stop-opacity="1"></stop></linearGradient><linearGradient id="fh-fill-grad-fh_1777459317809_49" gradientUnits="objectBoundingBox" x1="0.8011611142366291" y1="0.30273119870912774" x2="0.08222324764352093" y2="0.8856867480777647"><stop offset="0%" stop-color="#d899ff" stop-opacity="1"></stop><stop offset="100%" stop-color="#5529e8" stop-opacity="1"></stop></linearGradient><linearGradient id="fh-fill-grad-fh_1777460163297_4" gradientUnits="objectBoundingBox" x1="0.6780335374504078" y1="0.8660910460048703" x2="0.11644017849746159" y2="0.16767499849599532"><stop offset="0%" stop-color="#fd852e" stop-opacity="1"></stop><stop offset="100%" stop-color="#f53a25" stop-opacity="1"></stop></linearGradient><linearGradient id="fh-fill-grad-fh_1777460168603_5" gradientUnits="objectBoundingBox" x1="0.1583135931702318" y1="0.1661526878484938" x2="0.917050724381736" y2="1"><stop offset="0%" stop-color="#fdb04b" stop-opacity="1"></stop><stop offset="100%" stop-color="#fc570f" stop-opacity="1"></stop></linearGradient><linearGradient id="fh-fill-grad-fh_1777461729270_24" gradientUnits="objectBoundingBox" x1="0" y1="1" x2="0.5163529383120135" y2="0.4252584276988135"><stop offset="0%" stop-color="#c1ecfb" stop-opacity="1"></stop><stop offset="100%" stop-color="#ffffff" stop-opacity="1"></stop></linearGradient><clipPath id="fh-page-content-clip" clipPathUnits="userSpaceOnUse"><rect x="0" y="0" width="1920" height="1080"></rect></clipPath><filter id="fh-selection-shadow" x="-40%" y="-40%" width="180%" height="180%"><feDropShadow dx="0" dy="2" stdDeviation="3" flood-color="#000" flood-opacity="0.35"></feDropShadow></filter></defs>
<g><g data-fh-page-content="1"><g data-fh-obj="fh_1777460163297_4"><path d="M 907.8762739163236 167.024610472111 C 907.8762739163236 167.024610472111 1013.2949568351588 167.024610472111 1013.2949568351588 167.024610472111 C 1078.1018918614416 167.024610472111 1130.638290175264 219.5610087859333 1130.638290175264 284.36794381221637 C 1130.638290175264 284.36794381221637 1130.638290175264 332.1844074592724 1130.638290175264 332.1844074592724 C 1130.638290175264 396.9913424855554 1078.1018918614416 449.52774079937774 1013.2949568351588 449.52774079937774 C 1013.2949568351588 449.52774079937774 907.1700161251256 449.52774079937774 907.1700161251256 449.52774079937774 C 894.4511441971745 449.52774079937774 884.1404728552872 439.21706945749065 884.1404728552872 426.49819752953954 C 884.1404728552872 426.49819752953954 884.1404728552872 190.76042538133905 884.1404728552872 190.76042538133905 C 884.1404728552872 177.6515052779588 894.7673538129428 167.02462432030293 907.8762739163236 167.02462432030293 C 907.8762739163236 167.02462432030293 907.8762739163236 167.024610472111 907.8762739163236 167.024610472111 Z M 989.1354010994044 240.56511549615257 C 976.8532180574854 240.56511549615257 966.8965341990997 250.55042356736922 966.8965341990997 262.86793334704055 C 966.8965341990997 262.86793334704055 966.8965341990997 349.0473508385161 966.8965341990997 349.0473508385161 C 966.8965341990997 360.99835436913156 976.5569498381738 370.68654948132587 988.473679093628 370.68654948132587 C 988.473679093628 370.68654948132587 1003.8078513187683 370.68654948132587 1003.8078513187683 370.68654948132587 C 1012.724757530207 370.68654948132587 1020.9031535113161 367.5155766325761 1027.2830571030445 362.23672893732487 C 1044.6887249743436 351.1130579404254 1056.422907363061 330.12606759549874 1056.422907363061 306.0684207045564 C 1056.422907363061 283.678054583944 1046.2587914369437 263.9474691531741 1030.8181127672522 252.35268266496976 C 1024.0797071814352 245.10042606738432 1014.4719008237097 240.56511549615257 1003.8078513187683 240.56511549615257 C 1003.8078513187683 240.56511549615257 989.1354010994044 240.56511549615257 989.1354010994044 240.56511549615257 Z" fill="url(#fh-fill-grad-fh_1777460163297_4)" stroke="none" stroke-width="0" stroke-linecap="round" stroke-linejoin="round" opacity="1"></path></g><g data-fh-obj="fh_1777460168603_5"><path d="M 907.9817432633721 167.024610472111 C 907.9817432633721 167.024610472111 1013.8688436803286 167.024610472111 1013.8688436803286 167.024610472111 C 1078.9637474768533 167.024610472111 1131.7335852984197 221.87879452653218 1131.7335852984197 289.54485496627115 C 1131.7335852984197 289.54485496627115 1135.7955500359835 311.80734227224264 1128.6232825633203 356.936828975093 C 1121.4510150906572 402.0663156779434 1073.7275203863278 432.96299724348955 1073.7275203863278 432.96299724348955 C 1094.3786792417397 370.31993203776585 1087.2367210489256 323.76042736759223 1073.380650854055 292.66896074917634 C 1057.0052951692078 255.92450020013945 1020.1700331681916 244.1004025856492 987.5133292487013 241.14323064895433 C 927.2240297050269 235.6838363042869 884.1404860955603 278.4370539973859 884.1404728552872 330.3339981981426 C 884.1404728552872 330.3339981981426 884.1404728552872 191.80759796280526 884.1404728552872 191.80759796280526 C 884.1404728552872 178.12034966577824 894.8145694200921 167.02462432030293 907.9817432633721 167.02462432030293 C 907.9817432633721 167.02462432030293 907.9817432633721 167.024610472111 907.9817432633721 167.024610472111 Z" fill="url(#fh-fill-grad-fh_1777460168603_5)" stroke="none" stroke-width="0" stroke-linecap="round" stroke-linejoin="round" opacity="1"></path></g></g></g>
</svg>