<?xml version="1.0" encoding="UTF-8"?>
<svg xmlns="http://www.w3.org/2000/svg" xmlns:xlink="http://www.w3.org/1999/xlink" width="791" height="999" viewBox="178.84018564160976 201.8068045708861 263.5173635164549 332.8920962357663">
<defs><pattern id="fh-grid" width="9.427083333333334" height="9.427083333333334" patternUnits="userSpaceOnUse" x="2.2916666666666643" y="0.7083333333333233"><circle cx="1" cy="1" r="0.5" fill="rgba(255,255,255,0.04)"></circle></pattern><linearGradient id="fh-fill-grad-fh_1776979339344_17" gradientUnits="objectBoundingBox" x1="0" y1="0.5" x2="1" y2="0.5"><stop offset="0%" stop-color="#6366f1" stop-opacity="1"></stop><stop offset="100%" stop-color="#0f172a" stop-opacity="1"></stop></linearGradient><linearGradient id="fh-fill-grad-fh_1776979130481_11" gradientUnits="objectBoundingBox" x1="0.8011611142366291" y1="0.30273119870912774" x2="0.08222324764352093" y2="0.8856867480777647"><stop offset="0%" stop-color="#d899ff" stop-opacity="1"></stop><stop offset="100%" stop-color="#5529e8" stop-opacity="1"></stop></linearGradient><clipPath id="fh-page-content-clip" clipPathUnits="userSpaceOnUse"><rect x="0" y="0" width="1920" height="1080"></rect></clipPath><filter id="fh-selection-shadow" x="-40%" y="-40%" width="180%" height="180%"><feDropShadow dx="0" dy="2" stdDeviation="3" flood-color="#000" flood-opacity="0.35"></feDropShadow></filter></defs>
<g><g data-fh-page-content="1"><g opacity="1" data-fh-obj="fh_1776979122679_9"><path d="M 283.78641639975444 423.83639712992976 C 283.78641639975444 423.83639712992976 283.86776504568036 490.4168715579083 283.86776504568036 490.4168715579083 C 283.86776504568036 514.8731610035506 264.0420252425789 534.6989008066523 239.58573579693643 534.6989008066523 C 239.58573579693643 534.6989008066523 191.3107936439743 534.6989008066523 191.3107936439743 534.6989008066523 C 184.60821852972663 534.6989008066523 179.17470783624356 529.2653901131691 179.17470783624344 522.5628149989216 C 179.17470783624344 522.5628149989216 178.84018564160976 420.29231024192575 178.84018564160976 420.29231024192575 C 178.84018564160976 420.29231024192575 283.78641639975444 423.83639712992976 283.78641639975444 423.83639712992976 Z" fill="#4c22cc" stroke="none" stroke-width="0.5" stroke-linecap="butt" stroke-linejoin="round" opacity="1"></path></g><g opacity="1" data-fh-obj="fh_1776979130481_11"><path d="M 178.84018564160976 217.46710175030998 C 178.84018564160976 217.46710175030998 180.1944267719848 203.57905408777404 194.64435377678979 203.2619601518559 C 209.09428871886462 202.94486621593776 266.27847732525356 203.4331035672819 266.27847732525356 203.4331035672819 C 266.27847732525356 203.4331035672819 278.13105178637454 201.8068045708861 291.6168227315087 216.78279001851573 C 305.10259367664287 231.7587754661453 314.7216917992919 230.8165103970944 314.7216917992919 230.8165103970944 C 314.7216917992919 230.8165103970944 426.7251594199096 230.98765381252034 426.7251594199096 230.98765381252034 C 426.7251594199096 230.98765381252034 442.01397648947506 233.21255789940759 442.1857628237699 246.561966546192 C 442.35754915806467 259.91137519297627 442.35754915806467 259.91137519297627 442.35754915806467 259.91137519297627 C 442.35754915806467 259.91137519297627 442.01397648947506 300.81534202226896 442.01397648947506 300.81534202226896 C 442.01397648947506 300.81534202226896 440.76299130434063 309.0041599680827 435.3406850001403 312.3057388539544 C 429.9183786959401 315.6073256770961 427.58407521684353 314.84934020529704 423.63303715168354 315.02048362072287 C 419.68199114925346 315.19162703614893 257.8610342547794 314.55610570295505 257.8610342547794 314.55610570295505 C 257.8610342547794 314.55610570295505 227.97197416142478 313.0998706532672 208.4356699300132 325.0407393057061 C 188.89936569860163 336.9816079581451 185.02442224079186 348.73630794307553 182.61944530974506 353.52840294770215 C 180.21446044142806 358.3204979523289 179.01197197590466 363.62603907777327 179.01197197590466 363.62603907777327 C 179.01197197590466 363.62603907777327 178.84018564160976 217.46710175030998 178.84018564160976 217.46710175030998 Z M 286.1134689634872 430.28458175135734 C 286.1134689634872 430.28458175135734 239.9228517113154 430.5360503390359 239.9228517113154 430.5360503390359 C 239.9228517113154 430.5360503390359 214.04177165799615 433.2837109644339 197.26594674300918 455.4315913273433 C 180.4901218280222 477.5794716902526 178.84018564160976 504.2167830787041 178.84018564160976 504.2167830787041 C 178.84018564160976 504.2167830787041 179.5253942849124 401.36551954838274 179.5253942849124 401.36551954838274 C 179.5253942849124 401.36551954838274 183.41884745632808 376.3637382013201 201.91628210569604 358.32929244747265 C 220.41371675506377 340.2948546308953 240.9684997219266 340.72534834309533 240.9684997219266 340.72534834309533 C 240.9684997219266 340.72534834309533 402.9782525202743 340.0068111031237 402.9782525202743 340.0068111031237 C 402.9782525202743 340.0068111031237 412.9253821368816 338.8508826633349 412.77810609230187 347.2145110433079 C 412.63083004772193 355.57813942328096 413.5596652559576 379.09372252646074 400.9959034668717 396.36919064976075 C 388.4321416777858 413.6446587730609 380.72854492072156 419.04353425626414 371.5404088092015 423.22084801416884 C 362.35227269768154 427.39816177207365 350.03789199426785 430.26390516304514 338.9920854662764 430.1171767900944 C 327.94627100101513 429.97044841714364 286.11347690075706 430.2845658768173 286.11347690075706 430.2845658768173 C 286.11347690075706 430.2845658768173 286.1134689634872 430.28458175135734 286.1134689634872 430.28458175135734 Z" fill="url(#fh-fill-grad-fh_1776979130481_11)" stroke="none" stroke-width="0" stroke-linecap="round" stroke-linejoin="round" opacity="1"></path></g></g></g>
</svg>