<?xml version="1.0" encoding="UTF-8"?>
<svg xmlns="http://www.w3.org/2000/svg" xmlns:xlink="http://www.w3.org/1999/xlink" width="938" height="1002" viewBox="779.2626522912857 565.2144753477048 312.52916607618124 333.993929338548">
<defs><pattern id="fh-grid" width="9.427083333333334" height="9.427083333333334" patternUnits="userSpaceOnUse" x="2.2916666666666643" y="0.7083333333333233"><circle cx="1" cy="1" r="0.5" fill="rgba(255,255,255,0.04)"></circle></pattern><linearGradient id="fh-fill-grad-fh_1776979339344_17" gradientUnits="objectBoundingBox" x1="0" y1="0.5" x2="1" y2="0.5"><stop offset="0%" stop-color="#6366f1" stop-opacity="1"></stop><stop offset="100%" stop-color="#0f172a" stop-opacity="1"></stop></linearGradient><linearGradient id="fh-fill-grad-fh_1776979130481_11" gradientUnits="objectBoundingBox" x1="0.8011611142366291" y1="0.30273119870912774" x2="0.08222324764352093" y2="0.8856867480777647"><stop offset="0%" stop-color="#d899ff" stop-opacity="1"></stop><stop offset="100%" stop-color="#5529e8" stop-opacity="1"></stop></linearGradient><clipPath id="fh-page-content-clip" clipPathUnits="userSpaceOnUse"><rect x="0" y="0" width="1920" height="1080"></rect></clipPath><filter id="fh-selection-shadow" x="-40%" y="-40%" width="180%" height="180%"><feDropShadow dx="0" dy="2" stdDeviation="3" flood-color="#000" flood-opacity="0.35"></feDropShadow></filter></defs>
<g><g data-fh-page-content="1"><g opacity="1" data-fh-obj="fh_1776983581803_10"><path d="M 864.0281187167132 565.2144753477048 L 1007.0263519420395 565.2144753477048 A 84.76546642542749 84.76546642542749 0 0 1 1091.791818367467 649.9799417731323 L 1091.791818367467 814.4429382608254 A 84.76546642542749 84.76546642542749 0 0 1 1007.0263519420395 899.2084046862528 L 864.0281187167132 899.2084046862528 A 84.76546642542749 84.76546642542749 0 0 1 779.2626522912857 814.4429382608254 L 779.2626522912857 649.9799417731323 A 84.76546642542749 84.76546642542749 0 0 1 864.0281187167132 565.2144753477048 Z" fill="#000000" stroke="none" stroke-width="0.5" stroke-linecap="butt" stroke-linejoin="round" opacity="1"></path></g><g opacity="1" data-fh-obj="fh_1776983581803_11"><path d="M 922.5231484189223 765.8335737541494 C 922.5231484189223 765.8335737541494 922.5697541380789 803.9784114114708 922.5697541380789 803.9784114114708 C 922.5697541380789 817.9897442927592 911.2113246176696 829.3481738131685 897.1999917363814 829.3481738131685 C 897.1999917363814 829.3481738131685 869.5426365258345 829.3481738131685 869.5426365258345 829.3481738131685 C 865.7026422660226 829.3481738131685 862.58971185973 826.235243406876 862.58971185973 822.3952491470642 C 862.58971185973 822.3952491470642 862.3980596536335 763.803119328166 862.3980596536335 763.803119328166 C 862.3980596536335 763.803119328166 922.5231484189223 765.8335737541494 922.5231484189223 765.8335737541494 Z" fill="#daccea" stroke="none" stroke-width="0.5" stroke-linecap="butt" stroke-linejoin="round" opacity="1"></path></g><g opacity="1" data-fh-obj="fh_1776983581803_12"><path d="M 862.3980596536335 647.4847199577503 C 862.3980596536335 647.4847199577503 863.1739223748114 639.5280730876889 871.452477379022 639.3464057623711 C 879.7310369305994 639.1647384370533 912.4926177047932 639.4444560970019 912.4926177047932 639.4444560970019 C 912.4926177047932 639.4444560970019 919.2831149568044 638.5127278128052 927.0092921552325 647.0926686823493 C 934.7354693536606 655.6726095518932 940.2463783619046 655.1327733852407 940.2463783619046 655.1327733852407 C 940.2463783619046 655.1327733852407 1004.4146518107073 655.2308237198715 1004.4146518107073 655.2308237198715 C 1004.4146518107073 655.2308237198715 1013.1738180693062 656.505500806909 1013.2722367406918 664.1535542343993 C 1013.3706554120772 671.8016076618896 1013.3706554120772 671.8016076618896 1013.3706554120772 671.8016076618896 C 1013.3706554120772 671.8016076618896 1013.1738180693062 695.236033259617 1013.1738180693062 695.236033259617 C 1013.1738180693062 695.236033259617 1012.457112049882 699.9275157675452 1009.3506007869478 701.819034139807 C 1006.2440895240143 703.7105570594358 1004.9067360729002 703.2762971203651 1002.6431339152368 703.3743474549959 C 1000.3795272102061 703.4723977896267 907.6701528279425 703.1082991812779 907.6701528279425 703.1082991812779 C 907.6701528279425 703.1082991812779 890.5463135224084 702.2740027897535 879.3537054832848 709.1150849560782 C 868.1610974441614 715.9561671224029 865.9410908972068 722.6905907877182 864.5632476872788 725.4360456310549 C 863.1853999299831 728.1815004743916 862.4964783250191 731.2211154163554 862.4964783250191 731.2211154163554 C 862.4964783250191 731.2211154163554 862.3980596536335 647.4847199577503 862.3980596536335 647.4847199577503 Z M 923.8563477243681 769.4106794079426 C 923.8563477243681 769.4106794079426 897.3931299189512 769.5547491000756 897.3931299189512 769.5547491000756 C 897.3931299189512 769.5547491000756 882.5655155843929 771.1289203476324 872.954422791084 783.8177350212322 C 863.3433299977751 796.5065496948318 862.3980596536335 811.7674190002786 862.3980596536335 811.7674190002786 C 862.3980596536335 811.7674190002786 862.7906247815442 752.8425647705542 862.7906247815442 752.8425647705542 C 862.7906247815442 752.8425647705542 865.0212357891403 738.5187123375231 875.6186616536904 728.1865389574067 C 886.2160875182399 717.8543701246574 897.9921955452353 718.1010056871921 897.9921955452353 718.1010056871921 C 897.9921955452353 718.1010056871921 990.8097336070982 717.6893461638118 990.8097336070982 717.6893461638118 C 990.8097336070982 717.6893461638118 996.5085762128576 717.0270994156766 996.4241998118243 721.8187331419477 C 996.3398234107915 726.6103668682191 996.8719654319011 740.0827565980092 989.6740195186687 749.9801016181372 C 982.4760736054361 759.8774466382654 978.0625807578667 762.9705340728051 972.7985756068304 765.3637725786577 C 967.5345704557942 767.7570110845104 960.4794982770838 769.3988335160163 954.151209083828 769.3147708833297 C 947.8229153432055 769.2307082506434 923.8563522717357 769.4106703132078 923.8563522717357 769.4106703132078 C 923.8563522717357 769.4106703132078 923.8563477243681 769.4106794079426 923.8563477243681 769.4106794079426 Z" fill="#ffffff" stroke="none" stroke-width="0" stroke-linecap="round" stroke-linejoin="round" opacity="1"></path></g></g></g>
</svg>