<?xml version="1.0" encoding="UTF-8"?>
<svg xmlns="http://www.w3.org/2000/svg" xmlns:xlink="http://www.w3.org/1999/xlink" width="264" height="333" viewBox="181.32080579664853 214.9663130010834 263.5173635164549 332.8920962357666">
<defs><pattern id="fh-grid" width="8.5" height="8.5" patternUnits="userSpaceOnUse" x="6" y="3"><circle cx="1" cy="1" r="0.5" fill="rgba(255,255,255,0.04)"></circle></pattern><linearGradient id="fh-fill-grad-fh_1776979339344_17" gradientUnits="objectBoundingBox" x1="0" y1="0.5" x2="1" y2="0.5"><stop offset="0%" stop-color="#6366f1" stop-opacity="1"></stop><stop offset="100%" stop-color="#0f172a" stop-opacity="1"></stop></linearGradient><linearGradient id="fh-fill-grad-fh_1776979130481_11" gradientUnits="objectBoundingBox" x1="0.8011611142366291" y1="0.30273119870912774" x2="0.08222324764352093" y2="0.8856867480777647"><stop offset="0%" stop-color="#d899ff" stop-opacity="1"></stop><stop offset="100%" stop-color="#5529e8" stop-opacity="1"></stop></linearGradient><clipPath id="fh-page-content-clip" clipPathUnits="userSpaceOnUse"><rect x="0" y="0" width="1920" height="1080"></rect></clipPath><filter id="fh-selection-shadow" x="-40%" y="-40%" width="180%" height="180%"><feDropShadow dx="0" dy="2" stdDeviation="3" flood-color="#000" flood-opacity="0.35"></feDropShadow></filter></defs>
<g><g data-fh-page-content="1"><g data-fh-obj="fh_1776979122679_9"><path d="M 286.2670365547932 436.9959055601271 L 286.3483852007191 503.57637998810566 C 286.3483852007191 528.0326694337481 266.5226453976177 547.8584092368498 242.0663559519752 547.8584092368498 L 193.79141379901307 547.8584092368498 C 187.0888386847654 547.8584092368498 181.65532799128232 542.4248985433666 181.6553279912822 535.722323429119 L 181.32080579664853 433.45181867212307 L 286.2670365547932 436.9959055601271 Z" fill="#4c22cc" stroke="none" stroke-width="0.5" stroke-linecap="butt" stroke-linejoin="round" opacity="1"></path></g><g data-fh-obj="fh_1776979130481_11"><path d="M 181.32080579664853 230.62661018050727 C 181.32080579664853 230.62661018050727 182.67504692702357 216.73856251797133 197.12497393182855 216.4214685820532 L 268.7590974802923 216.5926119974792 C 268.7590974802923 216.5926119974792 280.6116719414133 214.9663130010834 294.09744288654747 229.94229844871302 C 307.58321383168163 244.9182838963426 317.20231195433064 243.97601882729168 317.20231195433064 243.97601882729168 L 429.20577957494834 244.14716224271763 C 429.20577957494834 244.14716224271763 444.4945966445138 246.37206632960488 444.66638297880866 259.7214749763893 L 444.83816931310344 273.07088362317353 L 444.4945966445138 313.9748504524662 C 444.4945966445138 313.9748504524662 443.2436114593794 322.16366839828 437.82130515517906 325.4652472841517 C 432.39899885097884 328.7668341072934 430.0646953718823 328.00884863549436 426.1136573067223 328.1799920509202 L 260.34165440981815 327.7156141331523 C 260.34165440981815 327.7156141331523 230.45259431646355 326.2593790834645 210.91629008505197 338.2002477359034 C 191.3799858536404 350.14111638834237 187.50504239583063 361.89581637327285 185.10006546478382 366.68791137789947 L 181.49259213094342 376.7855475079706 L 181.32080579664853 230.62661018050727 Z M 288.59408911852597 443.44409018155466 L 242.40347186635415 443.69555876923323 C 242.40347186635415 443.69555876923323 216.52239181303491 446.4432193946312 199.74656689804794 468.59109975754063 C 182.97074198306098 490.73898012045 181.32080579664853 517.3762915089015 181.32080579664853 517.3762915089015 L 182.00601443995117 414.52502797858006 C 182.00601443995117 414.52502797858006 185.89946761136684 389.5232466315174 204.3969022607348 371.48880087767 C 222.89433691010254 353.45436306109264 243.44911987696537 353.88485677329265 243.44911987696537 353.88485677329265 L 405.45887267531305 353.16631953332103 C 405.45887267531305 353.16631953332103 415.40600229192034 352.01039109353223 415.25872624734063 360.3740194735052 C 415.1114502027607 368.7376478534783 416.0402854109964 392.25323095665806 403.4765236219105 409.5286990799581 C 390.9127618328246 426.8041672032582 383.2091650757603 432.20304268646146 374.02102896424026 436.38035644436616 C 364.8328928527203 440.55767020227097 352.5185121493066 443.42341359324246 341.4727056213152 443.2766852202917 L 288.5940970557958 443.4440743070146 L 288.59408911852597 443.44409018155466 Z" fill="url(#fh-fill-grad-fh_1776979130481_11)" stroke="none" stroke-width="0" stroke-linecap="round" stroke-linejoin="round" opacity="1"></path></g></g></g>
</svg>