<?xml version="1.0" encoding="UTF-8"?>
<svg xmlns="http://www.w3.org/2000/svg" xmlns:xlink="http://www.w3.org/1999/xlink" width="697" height="878" viewBox="1369.8326188242916 190.8479447789227 348.6439285158315 438.905193715858">
<defs><pattern id="fh-grid" width="8.0625" height="8.0625" patternUnits="userSpaceOnUse" x="7.75" y="5.625"><circle cx="1" cy="1" r="0.5" fill="rgba(255,255,255,0.04)"></circle></pattern><linearGradient id="fh-fill-grad-fh_1777458632245_35" gradientUnits="objectBoundingBox" x1="0.019054199059163453" y1="0.05648236460200808" x2="1" y2="1"><stop offset="0%" stop-color="#63d4fd" stop-opacity="1"></stop><stop offset="100%" stop-color="#0b20bc" stop-opacity="1"></stop></linearGradient><linearGradient id="fh-fill-grad-fh_1777458785297_42" gradientUnits="objectBoundingBox" x1="0" y1="0.5" x2="1" y2="1"><stop offset="0%" stop-color="#2f46d3" stop-opacity="1"></stop><stop offset="100%" stop-color="#4de7ef" stop-opacity="1"></stop></linearGradient><clipPath id="fh-page-content-clip" clipPathUnits="userSpaceOnUse"><rect x="0" y="0" width="1920" height="1080"></rect></clipPath><filter id="fh-selection-shadow" x="-40%" y="-40%" width="180%" height="180%"><feDropShadow dx="0" dy="2" stdDeviation="3" flood-color="#000" flood-opacity="0.35"></feDropShadow></filter></defs>
<g><g data-fh-page-content="1"><g data-fh-obj="fh_1777458632245_35"><path d="M 1487.336331105218 521.487735902348 C 1487.336331105218 521.487735902348 1487.336331105218 575.2339433654975 1487.336331105218 575.2339433654975 C 1487.336331105218 605.344078620116 1463.0529698326764 629.7531384947806 1433.0979590969616 629.7531384947806 C 1433.0979590969616 629.7531384947806 1382.113792444029 629.7531384947806 1382.113792444029 629.7531384947806 C 1375.5777376255182 629.7531384947806 1370.2792233916775 624.4271908176255 1370.2792233916775 617.8572950992985 C 1370.2792233916775 617.8572950992985 1370.2792233916775 521.4835587359645 1370.2792233916775 521.4835587359645 C 1370.2792233916775 516.7770121870585 1370.872577968287 512.2097347869123 1371.9882194803774 507.85325294250686 C 1381.8278957555221 439.36125464566965 1441.3542724184865 386.6927258400501 1513.3173357119238 386.6927258400501 C 1534.023495222893 386.6927258400501 1552.931824093752 385.8726996481241 1569.5585504369024 386.07595814278193 C 1569.5491550538377 385.81400743350855 1569.5399102378096 385.55223834016465 1569.5307557620033 385.29065086275045 C 1570.4945654746991 385.3947167904697 1571.4715648597744 385.4479302578725 1572.4596158653128 385.4479302578725 C 1589.2053202805391 385.4479302578725 1610.9841193580353 375.27877004471077 1610.9841193580353 350.5630516727447 C 1610.9841193580353 325.8473333007786 1582.8313358198902 317.94673766552455 1581.7042813264495 318.08982074880817 C 1581.7042813264495 318.0717802331244 1569.0258743759173 317.3220999446361 1569.0258743759173 317.30408969827397 C 1569.0258743759173 317.30408969827397 1521.7648089427216 319.0623437830409 1521.7648089427216 319.0623437830409 C 1521.7648089427216 319.0623437830409 1521.7648089427216 319.1663189027953 1521.7648089427216 319.1663189027953 C 1458.124579487442 322.9982939422214 1402.977053600663 357.82360250240686 1371.6479078649556 408.5298317262393 C 1371.6479078649556 408.5298317262393 1371.6479078649556 253.70606558979532 1371.6479078649556 253.70606558979532 C 1371.6479078649556 253.70606558979532 1371.7522508211046 253.70606558979532 1371.7522508211046 253.70606558979532 C 1371.7522508211046 253.70606558979532 1371.7522508211046 222.7000189539567 1371.7522508211046 222.7000189539567 C 1371.7522508211046 205.41899081891538 1386.0510903295913 191.40998554270695 1403.6896572700136 191.40998554270695 C 1403.6896572700136 191.40998554270695 1403.689687383421 191.40998554270695 1403.689687383421 191.40998554270695 C 1403.689687383421 191.40998554270695 1620.3268039597956 190.8479447789227 1620.3268039597956 190.8479447789227 C 1620.3268039597956 190.8479447789227 1620.3268039597956 190.98330918519403 1620.3268039597956 190.98330918519403 C 1673.6495175935618 191.9242915863018 1716.5834068574281 235.10129948179926 1716.5834068574281 288.226713427906 C 1716.5834068574281 288.226713427906 1716.5834068574281 419.57656011172105 1716.5834068574281 419.57656011172105 C 1716.5834068574281 471.56342379452576 1675.4700537427448 514.0236541541327 1623.7406103735868 516.7015507682672 C 1623.7406103735868 516.7015507682672 1623.7406103735868 516.7310028182007 1623.7406103735868 516.7310028182007 C 1623.7406103735868 516.7310028182007 1623.1366859910297 516.7310028182007 1623.1366859910297 516.7310028182007 C 1621.6161094915421 516.8005011806334 1620.0864989698778 516.8356438630309 1618.5486072612175 516.8356438630309 C 1617.7077204769485 516.8356438630309 1616.8809568806828 516.8004709113119 1616.0681659053846 516.7310028182007 C 1616.0681659053846 516.7310028182007 1487.1327343587475 516.7310028182007 1487.1327343587475 516.7310028182007 C 1487.2675219696334 518.2985299074589 1487.336331105218 519.8850358613707 1487.336331105218 521.487705633026 C 1487.336331105218 521.487705633026 1487.336331105218 521.487735902348 1487.336331105218 521.487735902348 Z" fill="url(#fh-fill-grad-fh_1777458632245_35)" stroke="none" stroke-width="0" stroke-linecap="round" stroke-linejoin="round" opacity="1"></path></g><g data-fh-obj="fh_1777458785297_42"><path d="M 1369.8326188242918 615.7189360546993 C 1369.8326188242918 615.7189360546993 1369.8326188242918 520.6080171304185 1369.8326188242918 520.6080171304185 C 1369.8326188242918 515.9631539405264 1370.4299844985292 511.4557047301771 1371.5531489477469 507.15630581366577 C 1381.4593013521364 439.5617875996984 1441.3878480376975 387.5833948597227 1513.837115140339 387.5833948597227 C 1528.600143211614 387.5833948597227 1542.4554105461725 387.1775168124358 1555.229919279876 387.0118828622409 C 1558.8174877959937 387.27654587271377 1562.442063007367 387.4112818346334 1566.0987519314929 387.4112818346334 C 1644.39966054041 387.4112818346334 1707.9813810764583 325.6341377952642 1708.889141813175 249.08867682877982 C 1715.0354027314447 261.60285161033835 1718.4765473401226 275.61441258976254 1718.4765473401226 290.4076379603615 C 1718.4765473401226 290.4076379603615 1718.4765473401226 420.0363323137392 1718.4765473401226 420.0363323137392 C 1718.4765473401226 471.3419955084353 1677.0854304359323 513.2458587256142 1625.006464991568 515.8886301812943 C 1625.006464991568 515.8886301812943 1625.006464991568 515.9176852327109 1625.006464991568 515.9176852327109 C 1625.006464991568 515.9176852327109 1624.3984697346505 515.9176852327109 1624.3984697346505 515.9176852327109 C 1622.8676129846706 515.9862770389284 1621.3276732844108 516.0209760844748 1619.779381769189 516.0209760844748 C 1618.9328114343525 516.0209760844748 1618.1004419970116 515.9862770389284 1617.282189095398 515.9176852327109 C 1617.282189095398 515.9176852327109 1510.4549675275912 515.9176852327109 1510.4549675275912 515.9176852327109 C 1506.797969276986 515.6125639990069 1503.0987620221429 515.4569510179829 1499.3634479308957 515.4569510179829 C 1495.6281338396493 515.4569510179829 1491.9289265848065 515.6125639990069 1488.2719283342012 515.9176852327109 C 1488.2719283342012 515.9176852327109 1487.4756376126747 515.9176852327109 1487.4756376126747 515.9176852327109 C 1487.477634174501 515.940462780451 1487.4796307363265 515.9632403281918 1487.4815991775633 515.9860178759325 C 1429.856494306899 521.1417489222929 1382.8501175684023 563.436228365896 1370.2786676085857 618.9121985093142 C 1369.988069440833 617.8969130753842 1369.8326188242918 616.8257924138067 1369.8326188242918 615.7188784629227 C 1369.8326188242918 615.7188784629227 1369.8326188242918 615.7189360546993 1369.8326188242918 615.7189360546993 Z" fill="url(#fh-fill-grad-fh_1777458785297_42)" stroke="none" stroke-width="0" stroke-linecap="round" stroke-linejoin="round" opacity="1"></path></g></g></g>
</svg>