<?xml version="1.0"?><svg xmlns="http://www.w3.org/2000/svg" width="2352" height="968" viewBox="0 0 2352 968"><rect width="100%" height="100%" fill="#0e131a"/><text x="12" y="22" fill="#a8ff32" font-size="14" font-family="system-ui">A · Automática · 768</text><rect x="0" y="32" width="768" height="936" fill="#121820"/><rect x="0" y="32" width="768" height="177.5609756097561" fill="#f3f4f6"/><rect x="28" y="60" width="225.7560975609756" height="121.5609756097561" fill="#2563eb"/><rect x="271.1219512195122" y="60" width="225.7560975609756" height="121.5609756097561" fill="#7c3aed"/><rect x="514.2439024390244" y="60" width="225.7560975609756" height="121.5609756097561" fill="#059669"/><text x="804" y="22" fill="#a8ff32" font-size="14" font-family="system-ui">B · Mantener · 768</text><rect x="792" y="32" width="768" height="936" fill="#121820"/><rect x="792" y="32" width="768" height="177.5609756097561" fill="#f3f4f6"/><rect x="820" y="60" width="225.7560975609756" height="121.5609756097561" fill="#2563eb"/><rect x="1063.121951219512" y="60" width="225.7560975609756" height="121.5609756097561" fill="#7c3aed"/><rect x="1306.2439024390244" y="60" width="225.7560975609756" height="121.5609756097561" fill="#059669"/><text x="1596" y="22" fill="#a8ff32" font-size="14" font-family="system-ui">C · Apilar · 768</text><rect x="1584" y="32" width="768" height="936" fill="#121820"/><rect x="1584" y="32" width="768" height="936" fill="#f3f4f6"/><rect x="1708" y="60" width="520" height="280" fill="#2563eb"/><rect x="1708" y="360" width="520" height="280" fill="#7c3aed"/><rect x="1708" y="660" width="520" height="280" fill="#059669"/></svg>